<?xml version="1.0" encoding="UTF-8" standalone="no"?>
<!-- Created with Inkscape (http://www.inkscape.org/) -->

<svg
   width="100mm"
   height="100mm"
   viewBox="0 0 99.999998 100.00001"
   version="1.1"
   id="svg5"
   inkscape:version="1.1.1 (1:1.1+202109281949+c3084ef5ed)"
   sodipodi:docname="WindIcon.svg"
   xmlns:inkscape="http://www.inkscape.org/namespaces/inkscape"
   xmlns:sodipodi="http://sodipodi.sourceforge.net/DTD/sodipodi-0.dtd"
   xmlns="http://www.w3.org/2000/svg"
   xmlns:svg="http://www.w3.org/2000/svg">
  <sodipodi:namedview
     id="namedview7"
     pagecolor="#505050"
     bordercolor="#eeeeee"
     borderopacity="1"
     inkscape:pageshadow="0"
     inkscape:pageopacity="0"
     inkscape:pagecheckerboard="0"
     inkscape:document-units="mm"
     showgrid="false"
     inkscape:zoom="1"
     inkscape:cx="483.5"
     inkscape:cy="198.5"
     inkscape:window-width="2560"
     inkscape:window-height="1016"
     inkscape:window-x="0"
     inkscape:window-y="27"
     inkscape:window-maximized="1"
     inkscape:current-layer="layer1"
     width="100mm"
     units="mm"
     showguides="true"
     inkscape:guide-bbox="true">
    <sodipodi:guide
       position="-80.830206,85.977091"
       orientation="1,0"
       id="guide26371" />
  </sodipodi:namedview>
  <defs
     id="defs2">
    <inkscape:path-effect
       effect="powerstroke"
       id="path-effect29001"
       is_visible="true"
       lpeversion="1"
       offset_points="1.0303152,1.8603515"
       not_jump="true"
       sort_points="true"
       interpolator_type="CentripetalCatmullRom"
       interpolator_beta="0.75"
       start_linecap_type="round"
       linejoin_type="spiro"
       miter_limit="4"
       scale_width="1"
       end_linecap_type="round" />
    <inkscape:path-effect
       effect="simplify"
       id="path-effect28999"
       is_visible="true"
       lpeversion="1"
       steps="1"
       threshold="0.0032025118"
       smooth_angles="0"
       helper_size="0"
       simplify_individual_paths="false"
       simplify_just_coalesce="false"
       step="1" />
    <inkscape:path-effect
       effect="powerstroke"
       id="path-effect28992"
       is_visible="true"
       lpeversion="1"
       offset_points="1.5472716,1.8603515"
       not_jump="true"
       sort_points="true"
       interpolator_type="CentripetalCatmullRom"
       interpolator_beta="0.75"
       start_linecap_type="round"
       linejoin_type="spiro"
       miter_limit="4"
       scale_width="1"
       end_linecap_type="round" />
    <inkscape:path-effect
       effect="simplify"
       id="path-effect28990"
       is_visible="true"
       lpeversion="1"
       steps="1"
       threshold="0.0032025118"
       smooth_angles="0"
       helper_size="0"
       simplify_individual_paths="false"
       simplify_just_coalesce="false"
       step="1" />
    <inkscape:path-effect
       effect="powerstroke"
       id="path-effect28985"
       is_visible="true"
       lpeversion="1"
       offset_points="1.1120834,1.8603515"
       not_jump="true"
       sort_points="true"
       interpolator_type="CentripetalCatmullRom"
       interpolator_beta="0.75"
       start_linecap_type="round"
       linejoin_type="spiro"
       miter_limit="4"
       scale_width="1"
       end_linecap_type="round" />
    <inkscape:path-effect
       effect="simplify"
       id="path-effect28983"
       is_visible="true"
       lpeversion="1"
       steps="1"
       threshold="0.0032025118"
       smooth_angles="0"
       helper_size="0"
       simplify_individual_paths="false"
       simplify_just_coalesce="false"
       step="1" />
    <inkscape:path-effect
       effect="powerstroke"
       id="path-effect28670"
       is_visible="true"
       lpeversion="1"
       offset_points="1.3268847,1.8603515"
       not_jump="true"
       sort_points="true"
       interpolator_type="CentripetalCatmullRom"
       interpolator_beta="0.75"
       start_linecap_type="round"
       linejoin_type="spiro"
       miter_limit="4"
       scale_width="1"
       end_linecap_type="round" />
    <inkscape:path-effect
       effect="simplify"
       id="path-effect28668"
       is_visible="true"
       lpeversion="1"
       steps="1"
       threshold="0.0032025118"
       smooth_angles="0"
       helper_size="0"
       simplify_individual_paths="false"
       simplify_just_coalesce="false"
       step="1" />
    <inkscape:path-effect
       effect="powerstroke"
       id="path-effect28663"
       is_visible="true"
       lpeversion="1"
       offset_points="1.7065845,1.8603515"
       not_jump="true"
       sort_points="true"
       interpolator_type="CentripetalCatmullRom"
       interpolator_beta="0.75"
       start_linecap_type="round"
       linejoin_type="spiro"
       miter_limit="4"
       scale_width="1"
       end_linecap_type="round" />
    <inkscape:path-effect
       effect="simplify"
       id="path-effect28661"
       is_visible="true"
       lpeversion="1"
       steps="1"
       threshold="0.0032025118"
       smooth_angles="0"
       helper_size="0"
       simplify_individual_paths="false"
       simplify_just_coalesce="false"
       step="1" />
    <inkscape:path-effect
       effect="powerstroke"
       id="path-effect28623"
       is_visible="true"
       lpeversion="1"
       offset_points="1.0939955,1.8603515"
       not_jump="true"
       sort_points="true"
       interpolator_type="CentripetalCatmullRom"
       interpolator_beta="0.75"
       start_linecap_type="round"
       linejoin_type="spiro"
       miter_limit="4"
       scale_width="1"
       end_linecap_type="round" />
    <inkscape:path-effect
       effect="simplify"
       id="path-effect28621"
       is_visible="true"
       lpeversion="1"
       steps="1"
       threshold="0.0032025118"
       smooth_angles="0"
       helper_size="0"
       simplify_individual_paths="false"
       simplify_just_coalesce="false"
       step="1" />
    <inkscape:path-effect
       effect="powerstroke"
       id="path-effect28616"
       is_visible="true"
       lpeversion="1"
       offset_points="1.9299108,1.8603515"
       not_jump="true"
       sort_points="true"
       interpolator_type="CentripetalCatmullRom"
       interpolator_beta="0.75"
       start_linecap_type="round"
       linejoin_type="spiro"
       miter_limit="4"
       scale_width="1"
       end_linecap_type="round" />
    <inkscape:path-effect
       effect="simplify"
       id="path-effect28614"
       is_visible="true"
       lpeversion="1"
       steps="1"
       threshold="0.0032025118"
       smooth_angles="0"
       helper_size="0"
       simplify_individual_paths="false"
       simplify_just_coalesce="false"
       step="1" />
    <inkscape:path-effect
       effect="powerstroke"
       id="path-effect28576"
       is_visible="true"
       lpeversion="1"
       offset_points="0.57760817,1.8603515"
       not_jump="true"
       sort_points="true"
       interpolator_type="CentripetalCatmullRom"
       interpolator_beta="0.75"
       start_linecap_type="round"
       linejoin_type="spiro"
       miter_limit="4"
       scale_width="1"
       end_linecap_type="round" />
    <inkscape:path-effect
       effect="simplify"
       id="path-effect28574"
       is_visible="true"
       lpeversion="1"
       steps="1"
       threshold="0.0032025118"
       smooth_angles="0"
       helper_size="0"
       simplify_individual_paths="false"
       simplify_just_coalesce="false"
       step="1" />
    <inkscape:path-effect
       effect="powerstroke"
       id="path-effect28014"
       is_visible="true"
       lpeversion="1"
       offset_points="1.3180892,1.8603515"
       not_jump="true"
       sort_points="true"
       interpolator_type="CentripetalCatmullRom"
       interpolator_beta="0.75"
       start_linecap_type="round"
       linejoin_type="spiro"
       miter_limit="4"
       scale_width="1"
       end_linecap_type="round" />
    <inkscape:path-effect
       effect="simplify"
       id="path-effect28012"
       is_visible="true"
       lpeversion="1"
       steps="1"
       threshold="0.0032025118"
       smooth_angles="0"
       helper_size="0"
       simplify_individual_paths="false"
       simplify_just_coalesce="false"
       step="1" />
    <inkscape:path-effect
       effect="powerstroke"
       id="path-effect28007"
       is_visible="true"
       lpeversion="1"
       offset_points="1.3631815,1.8603515"
       not_jump="true"
       sort_points="true"
       interpolator_type="CentripetalCatmullRom"
       interpolator_beta="0.75"
       start_linecap_type="round"
       linejoin_type="spiro"
       miter_limit="4"
       scale_width="1"
       end_linecap_type="round" />
    <inkscape:path-effect
       effect="simplify"
       id="path-effect28005"
       is_visible="true"
       lpeversion="1"
       steps="1"
       threshold="0.0032025118"
       smooth_angles="0"
       helper_size="0"
       simplify_individual_paths="false"
       simplify_just_coalesce="false"
       step="1" />
    <inkscape:path-effect
       effect="powerstroke"
       id="path-effect27934"
       is_visible="true"
       lpeversion="1"
       offset_points="0.19868114,1.8603515"
       not_jump="true"
       sort_points="true"
       interpolator_type="CentripetalCatmullRom"
       interpolator_beta="0.75"
       start_linecap_type="round"
       linejoin_type="spiro"
       miter_limit="4"
       scale_width="1"
       end_linecap_type="round" />
    <inkscape:path-effect
       effect="simplify"
       id="path-effect27932"
       is_visible="true"
       lpeversion="1"
       steps="1"
       threshold="0.0032025118"
       smooth_angles="0"
       helper_size="0"
       simplify_individual_paths="false"
       simplify_just_coalesce="false"
       step="1" />
    <inkscape:path-effect
       effect="bspline"
       id="path-effect27703"
       is_visible="true"
       lpeversion="1"
       weight="33.333333"
       steps="2"
       helper_size="0"
       apply_no_weight="true"
       apply_with_weight="true"
       only_selected="false" />
    <inkscape:path-effect
       effect="bspline"
       id="path-effect27666"
       is_visible="true"
       lpeversion="1"
       weight="33.333333"
       steps="2"
       helper_size="0"
       apply_no_weight="true"
       apply_with_weight="true"
       only_selected="false" />
    <inkscape:path-effect
       effect="bspline"
       id="path-effect27662"
       is_visible="true"
       lpeversion="1"
       weight="33.333333"
       steps="2"
       helper_size="0"
       apply_no_weight="true"
       apply_with_weight="true"
       only_selected="false" />
    <inkscape:path-effect
       effect="bspline"
       id="path-effect25993"
       is_visible="true"
       lpeversion="1"
       weight="33.333333"
       steps="2"
       helper_size="0"
       apply_no_weight="true"
       apply_with_weight="true"
       only_selected="false" />
    <inkscape:path-effect
       effect="bspline"
       id="path-effect25956"
       is_visible="true"
       lpeversion="1"
       weight="33.333333"
       steps="2"
       helper_size="0"
       apply_no_weight="true"
       apply_with_weight="true"
       only_selected="false" />
    <inkscape:path-effect
       effect="bspline"
       id="path-effect25952"
       is_visible="true"
       lpeversion="1"
       weight="33.333333"
       steps="2"
       helper_size="0"
       apply_no_weight="true"
       apply_with_weight="true"
       only_selected="false" />
    <inkscape:path-effect
       effect="bspline"
       id="path-effect25948"
       is_visible="true"
       lpeversion="1"
       weight="33.333333"
       steps="2"
       helper_size="0"
       apply_no_weight="true"
       apply_with_weight="true"
       only_selected="false" />
    <inkscape:path-effect
       effect="spiro"
       id="path-effect25911"
       is_visible="true"
       lpeversion="1" />
  </defs>
  <g
     inkscape:label="Layer 1"
     inkscape:groupmode="layer"
     id="layer1">
    <path
       style="fill:#000000;stroke:none;stroke-opacity:1;stroke-linejoin:miter;stroke-linecap:butt;stroke-width:1px"
       d="m 124.22928,137.21469 32.5321,2.06218"
       id="path28538" />
    <path
       style="fill:#000000;stroke:none;stroke-opacity:1;stroke-linejoin:miter;stroke-linecap:butt;stroke-width:1px"
       d="m 226.40497,154.08528 0.4957,17.94628"
       id="path28707" />
    <path
       style="fill:#000000;stroke:none;stroke-opacity:1;stroke-linejoin:miter;stroke-linecap:butt;stroke-width:1px"
       d="m 217.12537,225.47098 -6.7851,-3.45374"
       id="path28996" />
    <path
       style="opacity:1;fill:#f9f9f9;fill-opacity:1;stroke:none;stroke-width:0.529168;stroke-linecap:butt;stroke-linejoin:round;stroke-miterlimit:4;stroke-dasharray:none;stroke-dashoffset:0;stroke-opacity:1"
       id="path29685"
       d="m 54.660546,88.218112 c -0.01581,1.383636 0.166836,2.787518 0.680046,4.080876 0.127343,0.320973 0.290165,0.626727 0.435246,0.940093 0.597643,1.216248 1.485898,2.185737 2.534163,3.021701 1.105041,0.752432 2.358133,1.119661 3.660419,1.344195 1.106141,0.157571 2.22493,0.170577 3.340015,0.181288 1.327845,-0.01228 2.615179,-0.263208 3.872352,-0.67194 1.141756,-0.385895 2.128975,-1.072055 3.020317,-1.865775 0.691456,-0.659075 1.277209,-1.415368 1.808822,-2.205739 0.33229,-0.436941 0.643216,-0.966463 0.898099,-1.375105 0.646987,-1.336756 0.674768,-1.444873 0.976972,-2.530703 0.169999,-0.512013 0.353937,-1.175869 0.383986,-1.267942 0.324518,-0.9788 0.389959,-2.006384 0.425611,-3.028699 0.07046,-0.996213 -0.03847,-1.980278 -0.233152,-2.956457 -0.141567,-0.727259 -0.375073,-1.429422 -0.598121,-2.133418 -0.197765,-0.644499 -0.439924,-1.277889 -0.68364,-1.905962 -0.30085,-0.747314 -0.77166,-1.395368 -1.279661,-2.01167 0.06012,0.07077 0.241657,0.282087 0.180396,0.21231 -0.582005,-0.66283 -0.473353,-0.577328 -1.288746,-1.316416 -0.06916,-0.0627 0.144528,0.118247 0.216783,0.177389 C 72.10817,74.180671 72.6968,74.516096 71.34734,73.62561 c 0.03093,0.01692 0.122553,0.06945 0.09277,0.0506 -0.263059,-0.166235 -0.518498,-0.322319 -0.797517,-0.460419 -0.17287,-0.08555 -0.565673,-0.220413 -0.765949,-0.371494 -0.883982,-0.490953 -1.826507,-0.851288 -2.79747,-1.124931 -0.756664,-0.230956 -1.535294,-0.376633 -2.309428,-0.534541 -1.114353,-0.209614 -2.264883,-0.216004 -3.372856,-0.462522 -1.055957,-0.228128 -2.12895,-0.353159 -3.205661,-0.424599 -0.711633,0.01362 -1.40241,-0.116479 -2.106882,-0.198546 -1.110582,-0.11324 -2.227883,-0.127262 -3.343168,-0.140442 -0.885214,-0.0081 -1.770473,-0.0058 -2.655715,-0.0054 -1.037472,5.9e-4 -2.074941,0.0012 -3.112421,0.0012 -0.861898,1.82e-4 -1.723795,1.65e-4 -2.585696,1.65e-4 -1.501019,-0.04872 -2.985525,0.20986 -4.472855,0.371426 -1.637194,0.138887 -3.263577,0.37596 -4.886486,0.627212 -1.266088,0.200349 -2.539817,0.349548 -3.806788,0.542283 -1.224821,0.187188 -2.457695,0.305946 -3.682711,0.494276 -1.716137,0.253915 -3.42158,0.573644 -5.140212,0.812111 -1.102298,0.159778 -2.191543,0.408243 -3.299481,0.528997 -0.922644,0.02433 -1.803618,0.278291 -2.66818,0.577897 -0.598863,0.178394 -1.219343,0.303438 -1.83922,0.40869 -0.925347,0.03522 -1.826158,0.425654 -2.751158,0.430927 -0.102107,-0.0037 -0.04996,-0.0017 -0.156437,-0.0063 -6.2488776,-0.07082 -6.3490625,8.766402 -0.100188,8.837246 v 0 c 0.543678,0.0024 0.257092,0.0059 0.859713,-0.01377 1.24243,-0.09868 2.454348,-0.374058 3.687479,-0.545428 1.078393,-0.19523 2.152666,-0.421953 3.19592,-0.761584 0.08938,-0.03105 0.178794,-0.06209 0.268175,-0.0931 -0.03965,0.0065 -0.156167,0.03405 -0.118909,0.01915 0.05709,-0.02298 0.241037,-0.0416 0.179508,-0.04343 -0.137435,-0.0042 -0.446837,-0.09622 -0.410867,0.03647 0.07556,0.278783 0.808931,-0.356907 0.863961,-0.0668 1.177981,-0.1392 2.343253,-0.358134 3.512371,-0.556101 1.767646,-0.248304 3.523207,-0.569576 5.288153,-0.834056 1.223447,-0.198301 2.460311,-0.290265 3.682933,-0.494318 1.257563,-0.209211 2.531321,-0.328023 3.789178,-0.53953 1.491881,-0.231332 2.986744,-0.450892 4.492266,-0.575181 1.169325,-0.128166 2.334708,-0.351998 3.513885,-0.319238 0.862717,0 1.725435,1.7e-5 2.588153,-1.65e-4 1.038584,-2.97e-4 2.077168,-5.91e-4 3.115752,-0.0012 0.848971,-5.61e-4 1.697966,-0.0029 2.546915,0.0046 0.814952,0.0093 1.63131,0.01515 2.443887,0.08402 0.850327,0.09373 1.696364,0.243764 2.554945,0.238161 0.706402,0.0396 1.40853,0.132094 2.099889,0.284696 1.087592,0.197031 2.184536,0.342831 3.285222,0.445309 0.597248,0.11826 1.19702,0.228922 1.779061,0.410428 0.288344,0.0067 0.550148,0.226281 0.810647,0.326437 0.693672,0.369576 0.862421,0.382384 1.292612,0.680453 -0.122782,-0.0897 -0.24843,-0.175587 -0.368337,-0.269074 -0.04006,-0.03122 -0.149755,-0.137152 -0.110826,-0.104522 0.161515,0.135324 0.317507,0.277146 0.478755,0.412791 0.06978,0.05868 -0.272869,-0.241855 -0.204222,-0.181867 0.350235,0.306088 0.498964,0.448701 0.19447,0.162916 0.149688,0.133362 0.289972,0.278103 0.44907,0.400087 0.159063,0.121958 -0.558231,-0.575229 -0.423953,-0.426416 0.10772,0.119354 0.158151,0.3539 0.318733,0.362007 0.03547,0.0017 -0.933063,-1.10931 0.06184,0.08681 -0.628476,-0.820714 0.477837,0.706925 -0.279228,-0.428068 -0.0376,-0.05632 0.107262,0.244567 0.09914,0.177325 -0.0029,-0.02462 -0.228983,-0.486555 -0.03323,-0.06655 -0.03282,-0.101054 -0.128126,-0.405201 -0.09844,-0.303179 0.206207,0.708748 0.345099,0.876729 0.454162,1.338599 0.104388,0.327972 0.179953,0.574589 0.280875,0.916503 0.01269,0.04278 0.04142,0.170889 0.04385,0.126371 0.0042,-0.07578 -0.05374,-0.298707 -0.03851,-0.224356 0.02505,0.122647 0.04543,0.246227 0.06815,0.369343 0.03451,0.172695 0.09234,0.712476 0.07848,0.03181 -0.0012,-0.06675 0.0012,0.198903 -0.0054,0.597399 -0.0017,0.101095 -0.0042,0.202197 -0.0059,0.303297 -0.0046,0.149889 -0.05072,0.452796 0.0054,0.58203 -0.192688,0.59126 -0.339323,1.194064 -0.535221,1.784525 0.152181,-0.203469 0.103145,-0.280041 -0.197589,0.599338 -0.09782,0.28602 0.229481,-0.704072 0.237682,-0.4611 -0.298522,0.542985 -0.414547,0.64745 -0.798513,1.216339 0.110677,-0.110298 0.01603,-0.02004 -0.09915,0.145487 -0.0024,0.0029 0.0078,-1.55e-4 0.01148,-2.33e-4 -0.100137,0.115116 -0.200283,0.230273 -0.300426,0.345407 -0.02752,0.03531 0.05645,-0.09659 0.100606,-0.08903 0.0413,0.0071 -0.05738,0.06101 -0.08606,0.09149 0.234662,-0.101013 0.275479,-0.266734 -0.09868,0.07675 -0.08749,0.08031 0.437854,-0.183737 0.330852,-0.132216 -0.07865,0.03788 -0.163095,0.06232 -0.244643,0.09348 0.04367,-0.0067 0.17209,-0.03583 0.130906,-0.01981 -0.290535,0.112282 -0.608726,0.09972 -0.927277,0.169751 -0.671648,-0.0059 -1.344461,-0.0091 -2.013996,-0.06874 -0.04618,-0.0054 -0.09215,-0.01737 -0.138602,-0.01558 -0.02774,0.0012 0.07608,0.05502 0.04034,0.04231 -0.104523,-0.03718 -0.210616,-0.173672 -0.309286,-0.12297 -0.193203,0.09927 0.828809,0.193203 0.554468,0.342301 0.06903,0.06462 0.140308,0.126925 0.207096,0.193893 0.0585,0.05868 0.194872,0.267562 0.140847,0.204759 -0.05703,-0.06636 -0.09089,-0.152606 -0.155836,-0.211261 -0.05905,-0.05333 0.309642,0.552965 -0.05831,-0.06876 0.0042,0.0353 0.04179,0.08559 0.01269,0.105953 -0.02573,0.01803 -0.03701,-0.05109 -0.05091,-0.0792 -0.159173,-0.322303 -0.117532,-0.708951 -0.122862,-1.053375 0,-6.249281 -8.837813,-6.249281 -8.837813,0 z" />
    <path
       style="opacity:1;fill:#f9f9f9;fill-opacity:1;stroke:none;stroke-width:0.529168;stroke-linecap:butt;stroke-linejoin:round;stroke-miterlimit:4;stroke-dasharray:none;stroke-dashoffset:0;stroke-opacity:1"
       id="path29960"
       d="m 75.77678,55.427367 c 0.472587,-0.715798 1.013998,-1.369877 1.658698,-1.93553 0.492519,-0.407358 1.066413,-0.64606 1.64405,-0.903672 0.747416,-0.32226 1.543295,-0.493009 2.315662,-0.741574 0.23882,-0.07934 0.172892,-0.03834 0.403845,-0.04572 0.658501,0.01537 0.335213,-0.07642 0.227774,0.0042 -0.08099,0.06059 0.645944,0.07781 0.332449,0.06532 0.538076,0.129867 0.72922,0.278798 0.937558,0.394455 0.244076,0.227892 0.954436,0.324431 1.129817,0.645479 0.142869,0.204936 0.456123,0.669034 0.676632,1.005057 0.376836,0.62965 0.884617,1.216621 1.15292,1.906705 -0.01452,-0.01558 -0.0486,-0.06734 -0.04306,-0.04683 0.132269,0.49021 0.205738,0.710148 0.249846,1.219853 0.0588,0.866819 0.06242,1.736165 0.06545,2.604603 -0.138183,0.166281 -0.0058,0.434104 -0.121689,0.615897 -0.02786,0.04371 0.01782,-0.134832 -0.03103,-0.152406 -0.05456,0.102162 -0.109165,0.204313 -0.16374,0.306491 -0.0042,-0.01094 -0.0017,-0.03847 -0.01187,-0.03282 -0.03648,0.02025 -0.05626,0.06197 -0.08836,0.08858 -0.130947,0.108464 -0.399073,0.215983 -0.524688,0.295779 -0.493758,0.255727 -0.982958,0.521878 -1.518983,0.677378 -0.683265,0.182534 -1.378712,0.306974 -2.06686,0.473051 -0.512534,0.117856 -1.035219,0.172403 -1.559396,0.199637 -0.07549,0.0024 -0.150957,0.0058 -0.226465,0.0078 -0.266936,0.0076 -0.534059,0.0083 -0.80108,0.0087 -0.370591,5.91e-4 -0.462888,0.03717 -0.30379,-0.0158 -0.540967,-0.08341 -1.084628,-0.139395 -1.622433,-0.238115 -0.641713,-0.05255 -1.213023,-0.283723 -1.828884,-0.461575 -1.15025,-0.377841 -2.349581,-0.568856 -3.51332,-0.895233 -0.873594,-0.260328 -1.777962,-0.380687 -2.662586,-0.588459 -0.768455,-0.161179 -1.533008,-0.342219 -2.297408,-0.524194 -1.06023,-0.273177 -2.153444,-0.37665 -3.224427,-0.587077 -0.856674,-0.181445 -1.72685,-0.265231 -2.585972,-0.424906 -1.277672,-0.214891 -2.565702,-0.355126 -3.850189,-0.520976 -1.824713,-0.205696 -3.649528,-0.411936 -5.479796,-0.562752 -1.426317,-0.07742 -2.84415,-0.242716 -4.269543,-0.334575 -2.058362,-0.106844 -4.120116,-0.114644 -6.180706,-0.124226 -1.967003,-0.0059 -3.93401,-0.0046 -5.90102,-0.0037 -1.119278,5.88e-4 -2.238557,0.0012 -3.357838,0.0017 -1.087862,-0.0024 -2.174291,-0.01362 -3.260704,0.04467 -1.556484,0.106156 -3.10838,0.274937 -4.657026,0.462297 -1.828143,0.274444 -3.648966,0.597467 -5.45286,1.001865 -1.852747,0.541372 -3.708387,1.074915 -5.553234,1.642975 -5.9713904,1.842833 -3.365238,10.287643 2.606149,8.444821 v 0 c 1.628301,-0.503817 3.271634,-0.957211 4.897927,-1.467985 1.512561,-0.346749 3.043618,-0.603375 4.575365,-0.849279 1.381808,-0.171513 2.767609,-0.317761 4.15657,-0.415472 0.891039,-0.09028 1.79578,0.01269 2.689811,-0.0261 1.120376,-2.54e-4 2.24075,-5.9e-4 3.361127,-0.0017 1.951619,-0.0012 3.903242,-0.0029 5.854862,0.0029 1.887998,0.0087 3.77701,0.01452 5.6632,0.106668 1.370932,0.08482 2.734312,0.252533 4.106319,0.322728 1.696477,0.13805 3.387355,0.332979 5.078831,0.520677 1.120599,0.142538 2.243425,0.266886 3.359274,0.444022 0.875232,0.162383 1.758248,0.258537 2.631071,0.433161 0.916486,0.159041 1.840391,0.270667 2.746515,0.487199 0.775077,0.184427 1.552486,0.360841 2.330213,0.531929 0.788256,0.183895 1.588945,0.30157 2.370378,0.514814 1.129525,0.299378 2.278694,0.518732 3.396048,0.862678 0.881536,0.245739 1.747665,0.561425 2.664122,0.656405 0.784055,0.142659 1.574692,0.237397 2.364641,0.341371 0.895705,0.06307 1.791257,0.07681 2.688577,0.02487 1.050847,-0.06416 2.098136,-0.186743 3.123809,-0.432118 0.915019,-0.221505 1.844558,-0.378002 2.743504,-0.665385 1.240658,-0.419796 2.433267,-0.960766 3.551993,-1.64566 1.479174,-0.960094 2.799761,-2.09557 3.659868,-3.66527 0.257315,-0.493033 0.518309,-0.96757 0.713424,-1.49385 0.408915,-1.102948 0.572207,-2.255087 0.620044,-3.424357 -0.0042,-1.162084 -0.01282,-2.3258 -0.112565,-3.484415 -0.154342,-1.392385 -0.437936,-2.755227 -1.009478,-4.042579 -0.510501,-1.042515 -1.104214,-2.04156 -1.766244,-2.995725 -0.692448,-1.044082 -1.405276,-2.089174 -2.370843,-2.905063 -0.773041,-0.62397 -1.600339,-1.218829 -2.523631,-1.603616 -0.96691,-0.535885 -1.979357,-0.967288 -3.055172,-1.233331 -1.038003,-0.233181 -2.092977,-0.40982 -3.162199,-0.328946 -0.910538,0.04954 -1.818086,0.161891 -2.684496,0.462049 -1.082315,0.350374 -2.200664,0.598206 -3.233174,1.095067 -1.443737,0.655135 -2.836025,1.402118 -4.017939,2.476752 -1.245621,1.17555 -2.376336,2.462224 -3.267337,3.932216 -3.173227,5.383684 4.44045,9.871311 7.613682,4.487628 z" />
    <path
       style="opacity:1;fill:#f9f9f9;fill-opacity:1;stroke:none;stroke-width:0.529168;stroke-linecap:butt;stroke-linejoin:round;stroke-miterlimit:4;stroke-dasharray:none;stroke-dashoffset:0;stroke-opacity:1"
       id="path30250"
       d="m 11.916203,57.426655 c 2.029145,-0.636717 4.112297,-1.095392 6.189591,-1.545203 2.246453,-0.408572 4.487157,-0.854633 6.740916,-1.22175 1.135553,-0.226365 2.27407,-0.433224 3.413557,-0.637912 0.960371,-0.204737 1.909257,-0.463333 2.881087,-0.608308 1.022287,-0.14797 2.039567,-0.311623 3.069456,-0.398063 1.073104,-0.05133 2.143151,-0.07127 3.212543,-0.183491 0.623108,-0.07487 1.246846,-0.145321 1.873988,-0.173783 0.539974,-0.01782 1.080376,-0.01467 1.62056,-0.01467 0.994849,0.02204 1.983797,-0.0012 2.97333,-0.109556 0.700113,-0.08961 1.404438,-0.138572 2.109385,-0.167817 0.749176,0.01515 1.488328,-0.09667 2.229691,-0.185051 1.286526,-0.05663 2.564292,-0.173204 3.837413,-0.368525 0.947657,-0.191978 1.906912,-0.311751 2.85961,-0.471292 0.735141,-0.11799 1.440917,-0.366397 2.176735,-0.479168 1.159622,-0.177924 2.225893,-0.680825 3.312123,-1.095743 0.886894,-0.355391 1.748976,-0.761754 2.57666,-1.2383 0.788208,-0.531699 1.638888,-0.957112 2.484444,-1.387673 1.095005,-0.559745 2.217842,-1.112968 3.171295,-1.902521 0.242504,-0.200818 0.464146,-0.425563 0.696221,-0.638349 0.94171,-0.922987 1.541897,-2.066697 2.036654,-3.270603 0.359411,-0.865588 0.681237,-1.735807 0.926905,-2.64161 0.277873,-1.110064 0.496496,-2.235789 0.701658,-3.361638 0.218587,-1.178995 0.283662,-2.371363 0.240771,-3.566595 -0.0528,-1.019623 -0.425876,-1.963207 -0.757617,-2.912366 C 72.131752,27.992142 71.652755,27.19361 71.175472,26.399473 70.58382,25.436994 69.77135,24.656062 68.913816,23.935155 68.164412,23.298454 67.35651,22.735864 66.517278,22.225609 65.633721,21.628228 64.641116,21.248455 63.646387,20.885403 62.811029,20.600856 61.954639,20.375992 61.095215,20.17674 60.277572,20.060665 59.468346,19.900989 58.65265,19.771045 c -1.075738,-0.205316 -2.161539,-0.09306 -3.23728,0.03505 -1.074175,0.149018 -2.093835,0.521892 -3.09783,0.915623 -1.030611,0.446297 -2.025932,0.958903 -2.970433,1.566226 -0.787244,0.532984 -1.537084,1.11033 -2.219734,1.772422 -0.869255,0.917613 -1.429971,2.004529 -1.816525,3.195093 -0.206563,0.811069 -0.375167,1.62759 -0.475314,2.464336 -0.16472,1.189052 -0.0745,2.263158 0.175074,3.432476 0.31857,1.210752 0.973279,2.221333 1.842692,3.108602 -0.07794,-0.08285 -0.29341,-0.345359 -0.233808,-0.248497 0.165567,0.269048 0.760835,0.793917 0.909901,0.935906 4.765882,4.042263 10.4825,-2.697706 5.71662,-6.739968 v 0 c 0.162739,0.170174 0.994142,1.088989 -0.111836,-0.164966 -0.06561,-0.06596 -0.247648,-0.275804 -0.196809,-0.1979 1.234265,1.891699 -0.261694,-0.616408 0.559066,0.804525 0.02587,0.04479 -0.08533,-0.187501 -0.07187,-0.137556 0.0085,0.03104 0.226501,0.640076 0.120297,0.343361 0.01848,0.129651 0.03706,0.259297 0.05556,0.388941 -0.0024,-0.0029 -0.0072,-0.01187 -0.0078,-0.0081 -0.0071,0.0558 -0.01009,0.224382 -0.01241,0.168195 -0.0095,-0.230352 0.03065,-0.462609 0.03734,-0.692469 0.01228,-0.130406 0.28965,-1.606673 0.187679,-1.016802 -0.08739,0.215158 -0.07787,0.211861 -0.196297,0.418783 -0.01053,0.01803 -0.04814,0.06796 -0.0376,0.04996 0.05592,-0.09509 0.257867,-0.210304 0.173739,-0.281645 -0.148687,-0.126115 -0.203401,0.541868 -0.383318,0.441814 0.0065,-0.0096 0.03035,-0.03186 0.01938,-0.0287 -0.02674,0.0078 -0.0929,0.06109 -0.07115,0.04371 0.289533,-0.231328 0.588063,-0.443011 0.886686,-0.663168 0.420351,-0.298453 0.899543,-0.490792 1.352339,-0.728842 0.387757,-0.152628 0.906195,-0.327127 0.993271,-0.364294 0.02499,-0.01066 -0.05433,-0.0012 -0.08145,-0.0012 0.05016,-0.0059 0.491477,-0.05799 0.578128,-0.07016 0.02969,-0.0042 0.116668,-0.0063 0.08848,-0.01648 -0.0658,-0.02399 -0.14381,1.2e-5 -0.208342,-0.02716 -0.112432,-0.04735 0.511019,0.07652 0.364439,0.03405 0.640967,0.09768 1.274472,0.246463 1.920486,0.307656 0.484571,0.06666 0.955132,0.259313 1.427661,0.383279 0.49979,0.180665 0.985738,0.318811 1.413863,0.655454 0.442502,0.192599 0.79926,0.573114 1.184849,0.854452 0.236859,0.198656 0.298776,0.251722 0.301252,0.24807 0.02116,-0.03111 -0.09365,-0.117248 -0.06783,-0.08997 0.364595,0.384829 0.295442,0.376784 0.110812,0.07171 -0.0092,-0.01515 0.02491,0.02539 0.03735,0.03806 0.0668,0.109407 0.924942,1.65955 0.590839,0.937449 0.0555,0.14761 0.09511,0.302236 0.166523,0.442849 0.03788,0.07459 -0.08927,-0.322373 -0.06474,-0.242415 0.455542,1.485348 -0.04937,-0.05119 0.130042,0.265725 0.0059,-0.05266 0.0156,-0.210973 0.01782,-0.158019 0.02204,0.512191 -0.08132,1.031265 -0.139096,1.537192 -0.165277,0.924969 -0.344299,1.849445 -0.571373,2.760965 -0.06734,0.516246 -0.411376,0.959593 -0.537038,1.460461 -0.412195,1.006463 0.111999,-0.229689 -0.04955,0.316062 0.03531,-0.01958 0.06786,-0.07286 0.105846,-0.05908 0.03118,0.01133 -0.04096,0.05328 -0.0677,0.07291 -0.09461,0.06958 -0.19467,0.131608 -0.294529,0.193426 -0.28456,0.176142 -0.533126,0.310083 -0.833759,0.46544 -0.199013,0.102836 -0.400213,0.201419 -0.600316,0.302119 -1.020698,0.520457 -2.046178,1.03936 -3.00233,1.673798 -0.300107,0.312105 -0.872393,0.331501 -1.218062,0.577558 -0.536863,0.207362 -1.219571,0.510088 -1.599038,0.628156 -0.765565,0.132295 -1.516357,0.320199 -2.271543,0.495572 -0.884163,0.203489 -1.814808,0.218476 -2.697359,0.443868 -1.175645,0.201196 -2.362906,0.218344 -3.548564,0.327354 -0.879326,0.113565 -0.512569,0.111122 -1.504224,0.124064 -0.907454,0.03951 -1.81419,0.101778 -2.715806,0.214644 -0.656328,0.07638 -1.322225,0.05991 -1.991225,0.05467 -0.683546,1.17e-4 -1.367416,-0.0029 -2.05053,0.02533 -0.798675,0.04059 -1.594695,0.114549 -2.388249,0.213977 -1.005166,0.112661 -2.017018,0.07764 -3.025201,0.165346 -1.237329,0.108449 -2.462373,0.291357 -3.690317,0.473738 -1.032508,0.168014 -2.055196,0.386758 -3.070102,0.640273 -1.092673,0.197588 -2.185902,0.390532 -3.273837,0.613875 -2.40306,0.395346 -4.794414,0.861618 -7.188546,1.306964 -2.458986,0.535656 -4.927117,1.078119 -7.3183821,1.870295 -5.8769929,2.124733 -2.8721668,10.436048 3.0048201,8.311313 z" />
  </g>
</svg>
