<?xml version="1.0" encoding="UTF-8" standalone="no"?>
<!-- Created with Inkscape (http://www.inkscape.org/) -->

<svg
   width="350"
   height="350"
   viewBox="0 0 92.604162 92.604169"
   version="1.1"
   id="svg5"
   inkscape:version="1.1.1 (1:1.1+202109281949+c3084ef5ed)"
   sodipodi:docname="HumidityIcon.svg"
   xmlns:inkscape="http://www.inkscape.org/namespaces/inkscape"
   xmlns:sodipodi="http://sodipodi.sourceforge.net/DTD/sodipodi-0.dtd"
   xmlns="http://www.w3.org/2000/svg"
   xmlns:svg="http://www.w3.org/2000/svg">
  <sodipodi:namedview
     id="namedview7"
     pagecolor="#505050"
     bordercolor="#eeeeee"
     borderopacity="1"
     inkscape:pageshadow="0"
     inkscape:pageopacity="0"
     inkscape:pagecheckerboard="0"
     inkscape:document-units="mm"
     showgrid="false"
     inkscape:zoom="1.0633188"
     inkscape:cx="67.242301"
     inkscape:cy="236.52362"
     inkscape:window-width="2560"
     inkscape:window-height="1016"
     inkscape:window-x="0"
     inkscape:window-y="27"
     inkscape:window-maximized="1"
     inkscape:current-layer="layer1"
     width="200px"
     units="px" />
  <defs
     id="defs2" />
  <g
     inkscape:label="Layer 1"
     inkscape:groupmode="layer"
     id="layer1">
    <path
       id="rect2678"
       style="opacity:1;fill:#def6ea;stroke:#0e0eff;stroke-width:0.213247;stroke-opacity:0.0241546"
       d="m 11.060462,28.688203 c 0,0 12.078795,5.07483 18.274526,5.04021 6.062542,-0.0339 16.617004,-5.04021 16.617004,-5.04021 0,0 10.89539,-4.66741 17.06473,-4.6319 6.02511,0.0347 17.826802,4.6319 17.826802,4.6319 0.89465,0.44115 1.69521,1.52883 1.69521,3.42788 0,1.89905 -0.14825,3.49161 -1.0874,3.49161 0,0 -12.409502,-4.66094 -18.434612,-4.69563 -6.16934,-0.0355 -17.06473,4.6319 -17.06473,4.6319 0,0 -10.554462,5.00633 -16.617004,5.04021 -6.195731,0.0346 -18.274526,-5.04021 -18.274526,-5.04021 -0.892108,-0.45324 -1.6952107,-1.52883 -1.6952107,-3.42788 0,-1.89905 0.7560637,-3.42788 1.6952107,-3.42788 z"
       sodipodi:nodetypes="sscssssscssss" />
    <path
       id="rect2678-3"
       style="fill:#def6ea;stroke:#0e0eff;stroke-width:0.213247;stroke-opacity:0.0241546"
       d="m 62.352952,38.469483 c -6.16934,-0.0355 -17.06511,4.63176 -17.06511,4.63176 0,0 -10.55401,5.0061 -16.616551,5.04 -6.195732,0.0346 -18.274856,-5.04 -18.274856,-5.04 -0.9391467,0 -1.6949847,1.52865 -1.6949847,3.4277 0,1.89905 0.802876,2.97497 1.6949847,3.42821 0,0 12.079124,5.0746 18.274856,5.04 6.062541,-0.0339 16.616551,-5.04 16.616551,-5.04 0,0 10.89577,-4.66778 17.06511,-4.63227 1.74151,0.01 4.01674,0.40756 6.37119,0.96634 0.31886,-0.54579 0.66551,-1.12009 1.15135,-1.96318 2.17783,-3.77935 1.46534,-2.63655 2.27686,-3.94653 -3.38763,-1.00033 -7.15109,-1.89678 -9.7994,-1.91203 z m 15.42696,10.05262 c -0.017,0.009 -0.20169,0.20656 -0.18707,0.25735 0.0574,-0.0837 0.11834,-0.16477 0.18036,-0.24495 0.008,-0.01 0.009,-0.0139 0.007,-0.0124 z" />
    <path
       id="rect2678-6"
       style="fill:#def6ea;stroke:#0e0eff;stroke-width:0.213247;stroke-opacity:0.0241546"
       d="m 62.580172,52.720933 c -6.16934,-0.0355 -17.06459,4.63176 -17.06459,4.63176 0,0 -10.554538,5.00611 -16.617082,5.04001 -6.195729,0.0346 -18.274337,-5.04001 -18.274337,-5.04001 -0.9391467,0 -1.6955027,1.52865 -1.6955027,3.4277 0,1.89905 0.803397,2.97498 1.6955027,3.42822 0,0 12.078608,5.0746 18.274337,5.04 6.062544,-0.0339 16.617082,-5.04 16.617082,-5.04 0,0 10.89525,-4.66778 17.06459,-4.63228 0.47169,0.003 0.98611,0.037 1.52704,0.092 -7e-5,-0.096 -5.3e-4,-0.0593 -5.3e-4,-0.18656 10e-6,-0.0211 7.9e-4,-0.0363 10e-4,-0.0563 -0.0564,-0.30472 -0.0775,-0.67179 -0.0605,-1.10691 0.10459,0.002 0.20955,2.5e-4 0.31471,-0.002 0.0568,-0.63503 0.051,-1.27437 0.0868,-1.91099 0.0526,-0.93667 0.11857,-1.87234 0.17777,-2.80862 v -10e-4 c 0.0164,-0.25871 0.053,-0.4939 0.10284,-0.71107 -0.76863,-0.0998 -1.49448,-0.16004 -2.14923,-0.16381 z" />
    <path
       id="rect7169"
       style="opacity:1;fill:none;stroke:#ffffff;stroke-width:1.32292"
       d="m 74.956612,34.508953 c 0,0 10.309872,16.83084 10.488472,21.89526 0.1786,5.06437 -5.213252,10.94653 -10.200332,11.1279 -4.98713,0.18137 -10.77957,-5.29409 -10.95817,-10.35851 -0.1786,-5.06437 10.67003,-22.66465 10.67003,-22.66465 z"
       sodipodi:nodetypes="csssc" />
  </g>
</svg>
