<?xml version="1.0" encoding="UTF-8" standalone="no"?>
<!-- Created with Inkscape (http://www.inkscape.org/) -->

<svg
   width="210mm"
   height="297mm"
   viewBox="0 0 210 297"
   version="1.1"
   id="svg8"
   inkscape:version="1.1.1 (c3084ef, 2021-09-22)"
   sodipodi:docname="FewCloudsNight.svg"
   xmlns:inkscape="http://www.inkscape.org/namespaces/inkscape"
   xmlns:sodipodi="http://sodipodi.sourceforge.net/DTD/sodipodi-0.dtd"
   xmlns="http://www.w3.org/2000/svg"
   xmlns:svg="http://www.w3.org/2000/svg"
   xmlns:rdf="http://www.w3.org/1999/02/22-rdf-syntax-ns#"
   xmlns:cc="http://creativecommons.org/ns#"
   xmlns:dc="http://purl.org/dc/elements/1.1/">
  <defs
     id="defs2" />
  <sodipodi:namedview
     id="base"
     pagecolor="#ffffff"
     bordercolor="#666666"
     borderopacity="1.0"
     inkscape:pageopacity="0.0"
     inkscape:pageshadow="2"
     inkscape:zoom="0.3199965"
     inkscape:cx="451.56743"
     inkscape:cy="531.2558"
     inkscape:document-units="mm"
     inkscape:current-layer="layer1"
     showgrid="false"
     inkscape:window-width="1280"
     inkscape:window-height="702"
     inkscape:window-x="0"
     inkscape:window-y="23"
     inkscape:window-maximized="0"
     inkscape:pagecheckerboard="0" />
  <metadata
     id="metadata5">
    <rdf:RDF>
      <cc:Work
         rdf:about="">
        <dc:format>image/svg+xml</dc:format>
        <dc:type
           rdf:resource="http://purl.org/dc/dcmitype/StillImage" />
      </cc:Work>
    </rdf:RDF>
  </metadata>
  <g
     inkscape:label="Layer 1"
     inkscape:groupmode="layer"
     id="layer1">
    <path
       id="path27156"
       style="fill:#999999;stroke-width:0.195793"
       d="m 188.99124,115.62479 a 36.779731,36.496809 0 0 1 -36.77973,36.4968 36.779731,36.496809 0 0 1 -36.77973,-36.4968 36.779731,36.496809 0 0 1 36.77973,-36.496814 36.779731,36.496809 0 0 1 36.77973,36.496814 z" />
    <ellipse
       style="fill:#808080;fill-opacity:1;stroke-width:0.374754"
       id="path28210-8"
       cx="134.67065"
       cy="94.082397"
       rx="2.7269757"
       ry="2.622092" />
    <ellipse
       style="fill:#808080;fill-opacity:1;stroke-width:0.448261"
       id="path28210-2"
       cx="159.10854"
       cy="88.943092"
       rx="3.251394"
       ry="3.1465104" />
    <ellipse
       style="fill:#808080;fill-opacity:1;stroke-width:0.389456"
       id="path28210-55"
       cx="150.50809"
       cy="114.74448"
       rx="2.8318594"
       ry="2.7269757" />
    <circle
       style="fill:#808080;fill-opacity:1;stroke-width:0.264583"
       id="path28210-4"
       cx="149.14459"
       cy="97.333786"
       r="1.8879062" />
    <circle
       style="fill:#808080;fill-opacity:1;stroke-width:0.462495"
       id="path28210-9"
       cx="179.03644"
       cy="110.96867"
       rx="3.4611614"
       ry="3.1465104" />
    <ellipse
       style="fill:#808080;fill-opacity:1;stroke-width:0.352471"
       id="path28210-1"
       cx="172.9532"
       cy="133.51865"
       rx="2.622092"
       ry="2.4123247" />
    <ellipse
       style="fill:#808080;fill-opacity:1;stroke-width:0.343468"
       id="path28210-5"
       cx="168.65295"
       cy="99.326576"
       rx="2.7269757"
       ry="2.2025573" />
    <path
       id="path27156-7"
       style="fill:#e6e6e6;stroke-width:0.195793"
       d="m 102.98325,162.30677 a 36.779731,36.496809 0 0 1 -36.77973,36.49679 36.779731,36.496809 0 0 1 -36.77973,-36.49679 36.779731,36.496809 0 0 1 36.77973,-36.49682 36.779731,36.496809 0 0 1 36.77973,36.49682 z" />
    <path
       id="path27156-7-8"
       style="fill:#e6e6e6;stroke-width:0.195793"
       d="m 172.01598,162.87261 a 36.779731,36.496809 0 0 1 -36.77973,36.49679 36.779731,36.496809 0 0 1 -36.77973,-36.49679 36.779731,36.496809 0 0 1 36.77973,-36.49681 36.779731,36.496809 0 0 1 36.77973,36.49681 z" />
    <path
       id="path27156-7-7"
       style="fill:#e6e6e6;stroke-width:0.195793"
       d="M 135.80209,164.0043 A 36.779731,36.496809 0 0 1 99.022359,200.50109 36.779731,36.496809 0 0 1 62.242629,164.0043 36.779731,36.496809 0 0 1 99.022359,127.50748 36.779731,36.496809 0 0 1 135.80209,164.0043 Z" />
    <path
       id="path27156-7-87"
       style="fill:#e6e6e6;stroke-width:0.195793"
       d="m 152.21151,132.88298 a 36.779731,36.496809 0 0 1 -36.77973,36.49679 36.779731,36.496809 0 0 1 -36.779732,-36.49679 36.779731,36.496809 0 0 1 36.779732,-36.49681 36.779731,36.496809 0 0 1 36.77973,36.49681 z" />
    <path
       id="path27156-7-74"
       style="fill:#e6e6e6;stroke-width:0.195793"
       d="m 114.30009,139.10725 a 36.779731,36.496809 0 0 1 -36.779729,36.49679 36.779731,36.496809 0 0 1 -36.77973,-36.49679 36.779731,36.496809 0 0 1 36.77973,-36.49682 36.779731,36.496809 0 0 1 36.779729,36.49682 z" />
    <circle
       style="fill:#808080;fill-opacity:1;stroke-width:0.499768"
       id="path28210"
       cx="164.87715"
       cy="117.68122"
       r="3.566045" />
  </g>
</svg>
