<?xml version="1.0" encoding="UTF-8"?>
<svg width="300" height="300" version="1.1" viewBox="0 0 79.375 79.375" xmlns="http://www.w3.org/2000/svg" xmlns:cc="http://creativecommons.org/ns#" xmlns:dc="http://purl.org/dc/elements/1.1/" xmlns:rdf="http://www.w3.org/1999/02/22-rdf-syntax-ns#">
<metadata>
<rdf:RDF>
<cc:Work rdf:about="">
<dc:format>image/svg+xml</dc:format>
<dc:type rdf:resource="http://purl.org/dc/dcmitype/StillImage"/>
</cc:Work>
</rdf:RDF>
</metadata>
<path d="m76.663 40.022a36.78 36.497 0 0 1-36.78 36.497 36.78 36.497 0 0 1-36.78-36.497 36.78 36.497 0 0 1 36.78-36.497 36.78 36.497 0 0 1 36.78 36.497z" fill="#999" stroke-width=".19579"/>
<circle cx="23.273" cy="54.21" r="3.566" fill="#808080" stroke-width=".49977"/>
<ellipse cx="22.343" cy="18.479" rx="2.727" ry="2.6221" fill="#808080" stroke-width=".37475"/>
<ellipse cx="46.781" cy="13.34" rx="3.2514" ry="3.1465" fill="#808080" stroke-width=".44826"/>
<ellipse cx="38.18" cy="39.141" rx="2.8319" ry="2.727" fill="#808080" stroke-width=".38946"/>
<circle cx="36.817" cy="21.731" r="1.8879" fill="#808080" stroke-width=".26458"/>
<circle cx="131.08" cy="138.25" r="0" fill="#808080" stroke-width=".4625"/>
<ellipse cx="60.625" cy="57.916" rx="2.6221" ry="2.4123" fill="#808080" stroke-width=".35247"/>
<ellipse cx="56.325" cy="23.724" rx="2.727" ry="2.2026" fill="#808080" stroke-width=".34347"/>
<circle cx="52.549" cy="42.078" r="3.566" fill="#808080" stroke-width=".49977"/>
<circle cx="41.463" cy="69.093" r="3.566" fill="#808080" stroke-width=".49977"/>
<circle cx="12.524" cy="32.712" r="3.566" fill="#808080" stroke-width=".49977"/>
</svg>
