<?xml version="1.0" encoding="UTF-8" standalone="no"?>
<!-- Created with Inkscape (http://www.inkscape.org/) -->

<svg
   width="210mm"
   height="297mm"
   viewBox="0 0 210 297"
   version="1.1"
   id="svg8"
   inkscape:version="1.1.1 (c3084ef, 2021-09-22)"
   sodipodi:docname="RainNight.svg"
   xmlns:inkscape="http://www.inkscape.org/namespaces/inkscape"
   xmlns:sodipodi="http://sodipodi.sourceforge.net/DTD/sodipodi-0.dtd"
   xmlns="http://www.w3.org/2000/svg"
   xmlns:svg="http://www.w3.org/2000/svg"
   xmlns:rdf="http://www.w3.org/1999/02/22-rdf-syntax-ns#"
   xmlns:cc="http://creativecommons.org/ns#"
   xmlns:dc="http://purl.org/dc/elements/1.1/">
  <defs
     id="defs2" />
  <sodipodi:namedview
     id="base"
     pagecolor="#ffffff"
     bordercolor="#666666"
     borderopacity="1.0"
     inkscape:pageopacity="0.0"
     inkscape:pageshadow="2"
     inkscape:zoom="0.3199965"
     inkscape:cx="451.56743"
     inkscape:cy="531.2558"
     inkscape:document-units="mm"
     inkscape:current-layer="layer1-1"
     showgrid="false"
     inkscape:window-width="1280"
     inkscape:window-height="702"
     inkscape:window-x="0"
     inkscape:window-y="23"
     inkscape:window-maximized="0"
     inkscape:pagecheckerboard="0" />
  <metadata
     id="metadata5">
    <rdf:RDF>
      <cc:Work
         rdf:about="">
        <dc:format>image/svg+xml</dc:format>
        <dc:type
           rdf:resource="http://purl.org/dc/dcmitype/StillImage" />
      </cc:Work>
    </rdf:RDF>
  </metadata>
  <g
     inkscape:label="Layer 1"
     inkscape:groupmode="layer"
     id="layer1">
    <path
       id="path27156"
       style="fill:#999999;stroke-width:0.195793"
       d="m 187.33758,121.41261 a 36.779731,36.496809 0 0 1 -36.77973,36.4968 36.779731,36.496809 0 0 1 -36.77973,-36.4968 36.779731,36.496809 0 0 1 36.77973,-36.49681 36.779731,36.496809 0 0 1 36.77973,36.49681 z" />
    <circle
       style="fill:#808080;fill-opacity:1;stroke-width:0.499768"
       id="path28210-93"
       cx="133.94676"
       cy="135.60045"
       r="3.566045" />
    <ellipse
       style="fill:#808080;fill-opacity:1;stroke-width:0.374754"
       id="path28210-8"
       cx="133.01698"
       cy="99.870224"
       rx="2.7269757"
       ry="2.622092" />
    <ellipse
       style="fill:#808080;fill-opacity:1;stroke-width:0.448261"
       id="path28210-2"
       cx="157.45486"
       cy="94.730927"
       rx="3.251394"
       ry="3.1465104" />
    <ellipse
       style="fill:#808080;fill-opacity:1;stroke-width:0.389456"
       id="path28210-55"
       cx="148.85442"
       cy="120.5323"
       rx="2.8318594"
       ry="2.7269757" />
    <circle
       style="fill:#808080;fill-opacity:1;stroke-width:0.264583"
       id="path28210-4"
       cx="147.49092"
       cy="103.12162"
       r="1.8879062" />
    <circle
       style="fill:#808080;fill-opacity:1;stroke-width:0.462495"
       id="path28210-9"
       cx="177.38277"
       cy="116.75651"
       rx="3.4611614"
       ry="3.1465104" />
    <ellipse
       style="fill:#808080;fill-opacity:1;stroke-width:0.352471"
       id="path28210-1"
       cx="171.29953"
       cy="139.30647"
       rx="2.622092"
       ry="2.4123247" />
    <ellipse
       style="fill:#808080;fill-opacity:1;stroke-width:0.343468"
       id="path28210-5"
       cx="166.99928"
       cy="105.1144"
       rx="2.7269757"
       ry="2.2025573" />
    <circle
       style="fill:#808080;fill-opacity:1;stroke-width:0.499768"
       id="path28210"
       cx="163.22348"
       cy="123.46906"
       r="3.566045" />
    <circle
       style="fill:#808080;fill-opacity:1;stroke-width:0.499768"
       id="path28210-7"
       cx="152.13708"
       cy="150.48341"
       r="3.566045" />
    <circle
       style="fill:#808080;fill-opacity:1;stroke-width:0.499768"
       id="path28210-57"
       cx="123.19795"
       cy="114.10281"
       r="3.566045" />
    <g
       inkscape:label="Layer 1"
       id="layer1-1"
       transform="translate(-3.3029232,22.224239)">
      <ellipse
         style="opacity:1;fill:#4d4d4d;fill-opacity:1;stroke-width:0.264583"
         id="path830"
         cx="89.415276"
         cy="124.56463"
         rx="25.702381"
         ry="27.78125" />
      <ellipse
         style="opacity:1;fill:#4d4d4d;fill-opacity:1;stroke-width:0.264583"
         id="path830-6"
         cx="103.58939"
         cy="104.90989"
         rx="25.702381"
         ry="27.78125" />
      <ellipse
         style="opacity:1;fill:#4d4d4d;fill-opacity:1;stroke-width:0.264583"
         id="path830-62"
         cx="114.92867"
         cy="124.75362"
         rx="25.702381"
         ry="27.78125" />
      <ellipse
         style="opacity:1;fill:#4d4d4d;fill-opacity:1;stroke-width:0.264583"
         id="path830-62-1"
         cx="103.2114"
         cy="124.37565"
         rx="25.702381"
         ry="27.78125" />
      <ellipse
         style="opacity:1;fill:#4d4d4d;fill-opacity:1;stroke-width:0.264583"
         id="path830-62-2"
         cx="126.26795"
         cy="124.56464"
         rx="25.702381"
         ry="27.78125" />
      <ellipse
         style="fill:#f5f5f5;fill-opacity:1;stroke-width:0.264583"
         id="path830-8"
         cx="57.162479"
         cy="134.879"
         rx="25.702381"
         ry="27.78125" />
      <ellipse
         style="fill:#f5f5f5;fill-opacity:1;stroke-width:0.264583"
         id="path830-3-0"
         cx="154.49135"
         cy="135.25697"
         rx="25.702381"
         ry="27.78125" />
      <ellipse
         style="fill:#f5f5f5;fill-opacity:1;stroke-width:0.264583"
         id="path830-6-2"
         cx="71.336586"
         cy="115.22427"
         rx="25.702381"
         ry="27.78125" />
      <ellipse
         style="fill:#f5f5f5;fill-opacity:1;stroke-width:0.264583"
         id="path830-7-4"
         cx="129.35594"
         cy="118.24805"
         rx="25.702381"
         ry="27.78125" />
      <ellipse
         style="fill:#f5f5f5;fill-opacity:1;stroke-width:0.264583"
         id="path830-5-8"
         cx="105.92142"
         cy="135.44597"
         rx="25.702381"
         ry="27.78125" />
      <ellipse
         style="fill:#f5f5f5;fill-opacity:1;stroke-width:0.264583"
         id="path830-35-3"
         cx="103.65356"
         cy="104.07396"
         rx="25.702381"
         ry="27.78125" />
      <ellipse
         style="fill:#f5f5f5;fill-opacity:1;stroke-width:0.264583"
         id="path830-62-9"
         cx="82.675865"
         cy="135.06798"
         rx="25.702381"
         ry="27.78125" />
      <ellipse
         style="fill:#f5f5f5;fill-opacity:1;stroke-width:0.264583"
         id="path830-9-0"
         cx="128.03302"
         cy="135.63495"
         rx="25.702381"
         ry="27.78125" />
      <ellipse
         style="fill:#f5f5f5;fill-opacity:1;stroke-width:0.264583"
         id="path830-62-1-5"
         cx="70.958603"
         cy="134.69002"
         rx="25.702381"
         ry="27.78125" />
      <ellipse
         style="fill:#f5f5f5;fill-opacity:1;stroke-width:0.264583"
         id="path830-62-2-2"
         cx="94.01516"
         cy="134.879"
         rx="25.702381"
         ry="27.78125" />
      <ellipse
         style="fill:#f5f5f5;fill-opacity:1;stroke-width:0.264583"
         id="path830-62-7-2"
         cx="117.82765"
         cy="135.82393"
         rx="25.702381"
         ry="27.78125" />
      <ellipse
         style="fill:#f5f5f5;fill-opacity:1;stroke-width:0.264583"
         id="path830-62-0-7"
         cx="140.69522"
         cy="135.63495"
         rx="25.702381"
         ry="27.78125" />
      <path
         id="path428"
         style="fill:#0000ff;stroke-width:0.471446"
         d="m 74.008492,194.78716 c -0.06531,1.79104 -0.805281,2.78459 -1.716008,2.78459 -1.811956,0 -2.050984,-1.54426 -1.113045,-3.06021 1.020437,-1.64929 1.887566,-3.208 2.51995,-3.65737 0,0 0.376095,2.09548 0.309103,3.93299 z"
         sodipodi:nodetypes="sssss" />
      <path
         id="path428-7"
         style="fill:#0000ff;stroke-width:0.471446"
         d="m 108.42724,192.39555 c -0.0653,1.79104 -0.80529,2.78459 -1.71601,2.78459 -1.81196,0 -2.05099,-1.54426 -1.11305,-3.06021 1.02044,-1.64929 1.88757,-3.208 2.51995,-3.65737 0,0 0.3761,2.09548 0.30911,3.93299 z"
         sodipodi:nodetypes="sssss" />
      <path
         id="path428-6"
         style="fill:#0000ff;stroke-width:0.471446"
         d="m 70.859272,178.62063 c -0.06531,1.79104 -0.805281,2.78459 -1.716008,2.78459 -1.811956,0 -2.050984,-1.54426 -1.113045,-3.06021 1.020437,-1.64929 1.887566,-3.208 2.51995,-3.65737 0,0 0.376095,2.09548 0.309103,3.93299 z"
         sodipodi:nodetypes="sssss" />
      <path
         id="path428-2"
         style="fill:#0000ff;stroke-width:0.471446"
         d="m 93.40005,178.62063 c -0.06531,1.79104 -0.805281,2.78459 -1.716008,2.78459 -1.811956,0 -2.050984,-1.54426 -1.113045,-3.06021 1.020437,-1.64929 1.887566,-3.208 2.51995,-3.65737 0,0 0.376095,2.09548 0.309103,3.93299 z"
         sodipodi:nodetypes="sssss" />
      <path
         id="path428-70"
         style="fill:#0000ff;stroke-width:0.471446"
         d="m 129.71575,176.74223 c -0.0653,1.79104 -0.80528,2.78459 -1.71601,2.78459 -1.81195,0 -2.05098,-1.54426 -1.11304,-3.06021 1.02044,-1.64929 1.88756,-3.208 2.51995,-3.65737 0,0 0.37609,2.09549 0.3091,3.93299 z"
         sodipodi:nodetypes="sssss" />
      <path
         id="path428-3"
         style="fill:#0000ff;stroke-width:0.471446"
         d="m 132.84641,203.03981 c -0.0653,1.79104 -0.80528,2.78459 -1.716,2.78459 -1.81196,0 -2.05099,-1.54426 -1.11305,-3.06021 1.02044,-1.64929 1.88757,-3.208 2.51995,-3.65737 0,0 0.3761,2.09548 0.3091,3.93299 z"
         sodipodi:nodetypes="sssss" />
      <path
         id="path428-9"
         style="fill:#0000ff;stroke-width:0.471446"
         d="m 58.96275,194.90008 c -0.06531,1.79104 -0.805281,2.78459 -1.716008,2.78459 -1.811956,0 -2.050984,-1.54426 -1.113045,-3.06021 1.020437,-1.64929 1.887566,-3.208 2.51995,-3.65737 0,0 0.376095,2.09548 0.309103,3.93299 z"
         sodipodi:nodetypes="sssss" />
      <path
         id="path428-99"
         style="fill:#0000ff;stroke-width:0.471446"
         d="m 114.06243,178.62063 c -0.0653,1.79104 -0.80528,2.78459 -1.716,2.78459 -1.81196,0 -2.05099,-1.54426 -1.11305,-3.06021 1.02044,-1.64929 1.88757,-3.208 2.51995,-3.65737 0,0 0.3761,2.09548 0.3091,3.93299 z"
         sodipodi:nodetypes="sssss" />
      <path
         id="path428-1"
         style="fill:#0000ff;stroke-width:0.471446"
         d="m 92.773917,204.29208 c -0.06531,1.79104 -0.805281,2.78459 -1.716008,2.78459 -1.811956,0 -2.050984,-1.54426 -1.113045,-3.06021 1.020437,-1.64929 1.887566,-3.208 2.51995,-3.65737 0,0 0.376095,2.09548 0.309103,3.93299 z"
         sodipodi:nodetypes="sssss" />
    </g>
  </g>
</svg>
