<?xml version="1.0" encoding="UTF-8" standalone="no"?>
<!-- Created with Inkscape (http://www.inkscape.org/) -->

<svg
   width="210mm"
   height="297mm"
   viewBox="0 0 210 297"
   version="1.1"
   id="svg8"
   inkscape:version="1.1.1 (c3084ef, 2021-09-22)"
   sodipodi:docname="ShowerRain.svg"
   xmlns:inkscape="http://www.inkscape.org/namespaces/inkscape"
   xmlns:sodipodi="http://sodipodi.sourceforge.net/DTD/sodipodi-0.dtd"
   xmlns="http://www.w3.org/2000/svg"
   xmlns:svg="http://www.w3.org/2000/svg"
   xmlns:rdf="http://www.w3.org/1999/02/22-rdf-syntax-ns#"
   xmlns:cc="http://creativecommons.org/ns#"
   xmlns:dc="http://purl.org/dc/elements/1.1/">
  <defs
     id="defs2" />
  <sodipodi:namedview
     id="base"
     pagecolor="#ffffff"
     bordercolor="#666666"
     borderopacity="1.0"
     inkscape:pageopacity="0.0"
     inkscape:pageshadow="2"
     inkscape:zoom="0.44587317"
     inkscape:cx="539.39105"
     inkscape:cy="538.26966"
     inkscape:document-units="mm"
     inkscape:current-layer="layer1"
     showgrid="false"
     inkscape:window-width="1280"
     inkscape:window-height="702"
     inkscape:window-x="0"
     inkscape:window-y="23"
     inkscape:window-maximized="0"
     inkscape:pagecheckerboard="0" />
  <metadata
     id="metadata5">
    <rdf:RDF>
      <cc:Work
         rdf:about="">
        <dc:format>image/svg+xml</dc:format>
        <dc:type
           rdf:resource="http://purl.org/dc/dcmitype/StillImage" />
      </cc:Work>
    </rdf:RDF>
  </metadata>
  <g
     inkscape:label="Layer 1"
     inkscape:groupmode="layer"
     id="layer1">
    <ellipse
       style="opacity:1;fill:#4d4d4d;fill-opacity:1;stroke-width:0.264583"
       id="path830"
       cx="77.83963"
       cy="126.21829"
       rx="25.702381"
       ry="27.78125" />
    <ellipse
       style="opacity:1;fill:#4d4d4d;fill-opacity:1;stroke-width:0.264583"
       id="path830-3"
       cx="175.16849"
       cy="126.59627"
       rx="25.702381"
       ry="27.78125" />
    <ellipse
       style="opacity:1;fill:#4d4d4d;fill-opacity:1;stroke-width:0.264583"
       id="path830-6"
       cx="92.013741"
       cy="106.56355"
       rx="25.702381"
       ry="27.78125" />
    <ellipse
       style="opacity:1;fill:#4d4d4d;fill-opacity:1;stroke-width:0.264583"
       id="path830-7"
       cx="150.03308"
       cy="109.58733"
       rx="25.702381"
       ry="27.78125" />
    <ellipse
       style="opacity:1;fill:#4d4d4d;fill-opacity:1;stroke-width:0.264583"
       id="path830-5"
       cx="126.59856"
       cy="126.78526"
       rx="25.702381"
       ry="27.78125" />
    <ellipse
       style="opacity:1;fill:#4d4d4d;fill-opacity:1;stroke-width:0.264583"
       id="path830-35"
       cx="124.3307"
       cy="95.413239"
       rx="25.702381"
       ry="27.78125" />
    <ellipse
       style="opacity:1;fill:#4d4d4d;fill-opacity:1;stroke-width:0.264583"
       id="path830-62"
       cx="103.35302"
       cy="126.40728"
       rx="25.702381"
       ry="27.78125" />
    <ellipse
       style="opacity:1;fill:#4d4d4d;fill-opacity:1;stroke-width:0.264583"
       id="path830-9"
       cx="148.71016"
       cy="126.97424"
       rx="25.702381"
       ry="27.78125" />
    <ellipse
       style="opacity:1;fill:#4d4d4d;fill-opacity:1;stroke-width:0.264583"
       id="path830-62-1"
       cx="91.635757"
       cy="126.02931"
       rx="25.702381"
       ry="27.78125" />
    <ellipse
       style="opacity:1;fill:#4d4d4d;fill-opacity:1;stroke-width:0.264583"
       id="path830-62-2"
       cx="114.69231"
       cy="126.2183"
       rx="25.702381"
       ry="27.78125" />
    <ellipse
       style="opacity:1;fill:#4d4d4d;fill-opacity:1;stroke-width:0.264583"
       id="path830-62-7"
       cx="138.50481"
       cy="127.16322"
       rx="25.702381"
       ry="27.78125" />
    <ellipse
       style="opacity:1;fill:#4d4d4d;fill-opacity:1;stroke-width:0.264583"
       id="path830-62-0"
       cx="161.37236"
       cy="126.97425"
       rx="25.702381"
       ry="27.78125" />
    <ellipse
       style="fill:#f5f5f5;fill-opacity:1;stroke-width:0.264583"
       id="path830-8"
       cx="45.586834"
       cy="136.53267"
       rx="25.702381"
       ry="27.78125" />
    <ellipse
       style="fill:#f5f5f5;fill-opacity:1;stroke-width:0.264583"
       id="path830-3-0"
       cx="142.9157"
       cy="136.91064"
       rx="25.702381"
       ry="27.78125" />
    <ellipse
       style="fill:#f5f5f5;fill-opacity:1;stroke-width:0.264583"
       id="path830-6-2"
       cx="59.760941"
       cy="116.87794"
       rx="25.702381"
       ry="27.78125" />
    <ellipse
       style="fill:#f5f5f5;fill-opacity:1;stroke-width:0.264583"
       id="path830-7-4"
       cx="117.7803"
       cy="119.90171"
       rx="25.702381"
       ry="27.78125" />
    <ellipse
       style="fill:#f5f5f5;fill-opacity:1;stroke-width:0.264583"
       id="path830-5-8"
       cx="94.345772"
       cy="137.09964"
       rx="25.702381"
       ry="27.78125" />
    <ellipse
       style="fill:#f5f5f5;fill-opacity:1;stroke-width:0.264583"
       id="path830-35-3"
       cx="92.077911"
       cy="105.72762"
       rx="25.702381"
       ry="27.78125" />
    <ellipse
       style="fill:#f5f5f5;fill-opacity:1;stroke-width:0.264583"
       id="path830-62-9"
       cx="71.10022"
       cy="136.72165"
       rx="25.702381"
       ry="27.78125" />
    <ellipse
       style="fill:#f5f5f5;fill-opacity:1;stroke-width:0.264583"
       id="path830-9-0"
       cx="116.45737"
       cy="137.28862"
       rx="25.702381"
       ry="27.78125" />
    <ellipse
       style="fill:#f5f5f5;fill-opacity:1;stroke-width:0.264583"
       id="path830-62-1-5"
       cx="59.382957"
       cy="136.34369"
       rx="25.702381"
       ry="27.78125" />
    <ellipse
       style="fill:#f5f5f5;fill-opacity:1;stroke-width:0.264583"
       id="path830-62-2-2"
       cx="82.439514"
       cy="136.53267"
       rx="25.702381"
       ry="27.78125" />
    <ellipse
       style="fill:#f5f5f5;fill-opacity:1;stroke-width:0.264583"
       id="path830-62-7-2"
       cx="106.25201"
       cy="137.4776"
       rx="25.702381"
       ry="27.78125" />
    <ellipse
       style="fill:#f5f5f5;fill-opacity:1;stroke-width:0.264583"
       id="path830-62-0-7"
       cx="129.11957"
       cy="137.28862"
       rx="25.702381"
       ry="27.78125" />
    <path
       id="path428"
       style="fill:#0000ff;stroke-width:0.471446"
       d="m 62.432845,196.44082 c -0.06531,1.79104 -0.805281,2.78459 -1.716008,2.78459 -1.811956,0 -2.050984,-1.54426 -1.113045,-3.06021 1.020437,-1.64929 1.887566,-3.208 2.51995,-3.65737 0,0 0.376095,2.09548 0.309103,3.93299 z"
       sodipodi:nodetypes="sssss" />
    <path
       id="path428-7"
       style="fill:#0000ff;stroke-width:0.471446"
       d="m 96.851588,194.04921 c -0.06531,1.79104 -0.805281,2.78459 -1.716008,2.78459 -1.811956,0 -2.050984,-1.54426 -1.113045,-3.06021 1.020437,-1.64929 1.887566,-3.208 2.51995,-3.65737 0,0 0.376095,2.09548 0.309103,3.93299 z"
       sodipodi:nodetypes="sssss" />
    <path
       id="path428-6"
       style="fill:#0000ff;stroke-width:0.471446"
       d="m 59.283625,180.27429 c -0.06531,1.79104 -0.805281,2.78459 -1.716008,2.78459 -1.811956,0 -2.050984,-1.54426 -1.113045,-3.06021 1.020437,-1.64929 1.887566,-3.208 2.51995,-3.65737 0,0 0.376095,2.09548 0.309103,3.93299 z"
       sodipodi:nodetypes="sssss" />
    <path
       id="path428-2"
       style="fill:#0000ff;stroke-width:0.471446"
       d="m 81.824403,180.27429 c -0.06531,1.79104 -0.805281,2.78459 -1.716008,2.78459 -1.811956,0 -2.050984,-1.54426 -1.113045,-3.06021 1.020437,-1.64929 1.887566,-3.208 2.51995,-3.65737 0,0 0.376095,2.09548 0.309103,3.93299 z"
       sodipodi:nodetypes="sssss" />
    <path
       id="path428-70"
       style="fill:#0000ff;stroke-width:0.471446"
       d="m 118.1401,178.39589 c -0.0653,1.79104 -0.80528,2.78459 -1.71601,2.78459 -1.81195,0 -2.05098,-1.54426 -1.11304,-3.06021 1.02044,-1.64929 1.88756,-3.208 2.51995,-3.65737 0,0 0.37609,2.09549 0.3091,3.93299 z"
       sodipodi:nodetypes="sssss" />
    <path
       id="path428-3"
       style="fill:#0000ff;stroke-width:0.471446"
       d="m 121.27076,204.69347 c -0.0653,1.79104 -0.80528,2.78459 -1.716,2.78459 -1.81196,0 -2.05099,-1.54426 -1.11305,-3.06021 1.02044,-1.64929 1.88757,-3.208 2.51995,-3.65737 0,0 0.3761,2.09548 0.3091,3.93299 z"
       sodipodi:nodetypes="sssss" />
    <path
       id="path428-9"
       style="fill:#0000ff;stroke-width:0.471446"
       d="m 47.387103,196.55374 c -0.06531,1.79104 -0.805281,2.78459 -1.716008,2.78459 -1.811956,0 -2.050984,-1.54426 -1.113045,-3.06021 1.020437,-1.64929 1.887566,-3.208 2.51995,-3.65737 0,0 0.376095,2.09548 0.309103,3.93299 z"
       sodipodi:nodetypes="sssss" />
    <path
       id="path428-99"
       style="fill:#0000ff;stroke-width:0.471446"
       d="m 102.48678,180.27429 c -0.0653,1.79104 -0.80528,2.78459 -1.716,2.78459 -1.811961,0 -2.050989,-1.54426 -1.11305,-3.06021 1.02044,-1.64929 1.88757,-3.208 2.51995,-3.65737 0,0 0.3761,2.09548 0.3091,3.93299 z"
       sodipodi:nodetypes="sssss" />
    <path
       id="path428-1"
       style="fill:#0000ff;stroke-width:0.471446"
       d="m 81.19827,205.94574 c -0.06531,1.79104 -0.805281,2.78459 -1.716008,2.78459 -1.811956,0 -2.050984,-1.54426 -1.113045,-3.06021 1.020437,-1.64929 1.887566,-3.208 2.51995,-3.65737 0,0 0.376095,2.09548 0.309103,3.93299 z"
       sodipodi:nodetypes="sssss" />
  </g>
</svg>
